<svg version="1.1" id="Layer_1" xmlns="http://www.w3.org/2000/svg" xmlns:xlink="http://www.w3.org/1999/xlink" x="0px" y="0px" width="100px" height="100px" viewBox="0 0 100 100" enable-background="new 0 0 100 100" xml:space="preserve">
<g>
	<path fill="#231F20" d="M92.814,25.281c-0.159-0.277-0.389-0.516-0.685-0.688l0,0L50.939,0.812L50.75,0.702
		c-0.066-0.027-0.137-0.039-0.203-0.059c-0.016-0.005-0.032-0.009-0.048-0.014c-0.111-0.032-0.227-0.048-0.343-0.057
		c-0.039-0.004-0.079-0.008-0.119-0.008c-0.023-0.001-0.045,0.004-0.07,0.004c-0.068,0.002-0.135,0.004-0.204,0.012
		c-0.061,0.008-0.125,0.017-0.185,0.032c-0.064,0.014-0.125,0.033-0.185,0.053c-0.047,0.015-0.095,0.022-0.139,0.04l-0.129,0.075
		L7.864,24.603c-0.331,0.193-0.58,0.47-0.739,0.79c-0.096,0.191-0.159,0.398-0.188,0.61v47.997c0.034,0.253,0.119,0.498,0.249,0.719
		c0.16,0.276,0.388,0.517,0.685,0.688l0,0l41.193,23.783l0.188,0.108c0.066,0.027,0.137,0.039,0.203,0.06
		c0.018,0.005,0.031,0.009,0.047,0.013c0.114,0.032,0.229,0.05,0.342,0.059c0.041,0.002,0.079,0.006,0.119,0.007l0.003-0.001
		c0.09,0.003,0.184-0.005,0.273-0.015c0.062-0.009,0.124-0.018,0.185-0.032c0.063-0.015,0.125-0.033,0.184-0.054
		c0.048-0.016,0.096-0.022,0.14-0.04l0.129-0.075l41.261-23.821c0.252-0.146,0.456-0.345,0.609-0.571
		c0.167-0.248,0.277-0.531,0.315-0.827V26.001C93.028,25.747,92.943,25.502,92.814,25.281z"></path>
	<path fill="#231F20" d="M90.37,26.691c-0.15-0.26-0.363-0.486-0.645-0.648l0,0L50.884,3.617l-0.177-0.103
		c-0.063-0.025-0.128-0.037-0.192-0.056c-0.016-0.004-0.031-0.008-0.044-0.013c-0.108-0.029-0.214-0.044-0.323-0.054
		c-0.038-0.003-0.074-0.007-0.111-0.007c-0.023,0-0.045,0.003-0.068,0.004c-0.063,0.002-0.127,0.004-0.192,0.012
		c-0.059,0.007-0.116,0.016-0.175,0.029c-0.06,0.014-0.117,0.031-0.174,0.051c-0.043,0.013-0.088,0.02-0.131,0.038l-0.122,0.07
		L10.268,26.052c-0.312,0.183-0.547,0.443-0.696,0.744c-0.091,0.18-0.149,0.375-0.178,0.576V72.63
		c0.032,0.239,0.113,0.469,0.234,0.679c0.151,0.26,0.366,0.487,0.646,0.647l0,0l38.842,22.425l0.178,0.104
		c0.061,0.024,0.126,0.036,0.192,0.056c0.015,0.004,0.03,0.008,0.043,0.012c0.106,0.029,0.214,0.045,0.321,0.055
		c0.039,0.004,0.076,0.006,0.114,0.006h0.002c0.086,0.003,0.172-0.004,0.258-0.015c0.057-0.008,0.116-0.017,0.175-0.03
		c0.059-0.013,0.116-0.031,0.174-0.05c0.041-0.015,0.088-0.021,0.131-0.038l0.122-0.069l38.906-22.463
		c0.238-0.141,0.429-0.325,0.573-0.539c0.159-0.234,0.262-0.502,0.3-0.78V27.37C90.574,27.131,90.493,26.9,90.37,26.691z"></path>
	<g>
		<g>
			<path fill="#c23030" d="M49.87,91.235c-0.096-0.007-0.19-0.021-0.285-0.048c-0.012-0.003-0.025-0.007-0.039-0.011
				c-0.056-0.017-0.117-0.026-0.17-0.05l-0.157-0.09L14.853,71.196h-0.001c-0.247-0.143-0.437-0.345-0.571-0.573
				c-0.107-0.187-0.178-0.39-0.208-0.602V29.979c0.024-0.172,0.075-0.339,0.151-0.496l-4.653-2.687
				c-0.091,0.18-0.149,0.375-0.178,0.576V72.63c0.032,0.239,0.113,0.469,0.234,0.679c0.151,0.26,0.366,0.487,0.646,0.647
				l38.842,22.425l0.178,0.104c0.061,0.024,0.126,0.036,0.192,0.056c0.015,0.004,0.03,0.008,0.043,0.012
				c0.106,0.029,0.214,0.045,0.321,0.055c0.039,0.004,0.076,0.006,0.114,0.006h0.002v-5.372
				C49.935,91.24,49.902,91.238,49.87,91.235z"></path>
			<path fill="#8a1e1e" d="M90.37,26.691l-4.65,2.687c0.106,0.186,0.179,0.39,0.208,0.6v40.043
				c-0.034,0.251-0.129,0.491-0.273,0.702c-0.127,0.184-0.294,0.346-0.502,0.466l-34.42,19.872l-0.109,0.063
				c-0.037,0.016-0.077,0.021-0.116,0.033c-0.051,0.017-0.101,0.033-0.153,0.045c-0.052,0.012-0.103,0.02-0.156,0.026
				c-0.076,0.008-0.153,0.015-0.229,0.013h-0.002v5.372c0.086,0.003,0.172-0.004,0.258-0.015c0.057-0.008,0.116-0.017,0.175-0.03
				c0.059-0.013,0.116-0.031,0.174-0.05c0.041-0.015,0.088-0.021,0.131-0.038l0.122-0.069l38.906-22.463
				c0.238-0.141,0.429-0.325,0.573-0.539c0.159-0.234,0.262-0.502,0.3-0.78V27.37C90.574,27.131,90.493,26.9,90.37,26.691z"></path>
			<path fill="#f54949" d="M89.726,26.043L50.884,3.617l-0.177-0.103c-0.063-0.025-0.128-0.037-0.192-0.056
				c-0.016-0.004-0.031-0.008-0.044-0.013c-0.108-0.029-0.214-0.044-0.323-0.054c-0.038-0.003-0.074-0.007-0.111-0.007
				c-0.023,0-0.045,0.003-0.068,0.004c-0.063,0.002-0.127,0.004-0.192,0.012c-0.059,0.007-0.116,0.016-0.175,0.029
				c-0.06,0.014-0.117,0.031-0.174,0.051c-0.043,0.013-0.088,0.02-0.131,0.038l-0.122,0.07L10.268,26.052
				c-0.312,0.183-0.547,0.443-0.696,0.744l4.653,2.687c0.133-0.271,0.341-0.508,0.622-0.671L49.269,8.938l0.107-0.062
				c0.039-0.015,0.079-0.021,0.117-0.033c0.052-0.018,0.103-0.033,0.154-0.045c0.051-0.012,0.104-0.019,0.155-0.026
				c0.055-0.006,0.111-0.009,0.167-0.01c0.022-0.001,0.043-0.005,0.063-0.005c0.033,0.001,0.067,0.005,0.099,0.007
				c0.096,0.009,0.191,0.022,0.286,0.049c0.012,0.003,0.025,0.007,0.038,0.01c0.058,0.018,0.117,0.027,0.171,0.05l0.157,0.09
				l34.364,19.842l0,0c0.248,0.142,0.438,0.342,0.573,0.573l4.65-2.687C90.22,26.431,90.007,26.205,89.726,26.043z"></path>
		</g>
		<g>
			<polygon fill="none" points="42.449,45.386 49.839,43.412 49.839,41.404 40.048,44.019 			"></polygon>
			<polygon fill="none" points="37.844,44.607 38.345,46.482 42.449,45.386 40.048,44.019 			"></polygon>
			<polygon fill="#c23030" points="49.821,49.585 42.449,45.386 38.345,46.482 37.844,44.607 40.048,44.019 26.283,36.178 
				26.188,36.233 26.188,62.686 49.839,56.368 49.839,49.574 			"></polygon>
			<polygon fill="#c23030" points="27.55,64.33 49.839,77.199 49.839,58.377 			"></polygon>
			<polygon fill="#8a1e1e" points="73.489,63.548 73.489,37.095 70.343,37.936 49.839,49.574 49.839,56.368 61.331,53.298 
				61.831,55.175 49.839,58.377 49.839,77.199 49.841,77.201 			"></polygon>
			<polygon fill="#f54949" points="49.839,43.412 42.449,45.386 49.821,49.585 49.839,49.574 70.343,37.936 			"></polygon>
			<polygon fill="#f54949" points="49.839,22.582 49.836,22.581 26.283,36.178 40.048,44.019 49.839,41.404 72.126,35.45 			"></polygon>
		</g>
	</g>
</g>
</svg>