<?xml version="1.0" encoding="UTF-8" standalone="no"?>
<!-- Created with Inkscape (http://www.inkscape.org/) -->

<svg
   xmlns:dc="http://purl.org/dc/elements/1.1/"
   xmlns:cc="http://creativecommons.org/ns#"
   xmlns:rdf="http://www.w3.org/1999/02/22-rdf-syntax-ns#"
   xmlns:svg="http://www.w3.org/2000/svg"
   xmlns="http://www.w3.org/2000/svg"
   xmlns:sodipodi="http://sodipodi.sourceforge.net/DTD/sodipodi-0.dtd"
   xmlns:inkscape="http://www.inkscape.org/namespaces/inkscape"
   version="1.1"
   id="svg3916"
   width="8000"
   height="5333.3335"
   viewBox="0 0 8000 5333.3335"
   sodipodi:docname="mountains.svg"
   inkscape:version="0.92.4 (5da689c313, 2019-01-14)">
  <metadata
     id="metadata3922">
    <rdf:RDF>
      <cc:Work
         rdf:about="">
        <dc:format>image/svg+xml</dc:format>
        <dc:type
           rdf:resource="http://purl.org/dc/dcmitype/StillImage" />
        <dc:title></dc:title>
      </cc:Work>
    </rdf:RDF>
  </metadata>
  <defs
     id="defs3920">
    <clipPath
       clipPathUnits="userSpaceOnUse"
       id="clipPath4769">
      <rect
         style="fill:none;fill-opacity:1;stroke:#000000;stroke-width:3.68111658;stroke-opacity:1"
         id="rect4771"
         width="8000.0244"
         height="5237.6499"
         x="-0.012182139"
         y="69.590866" />
    </clipPath>
    <clipPath
       clipPathUnits="userSpaceOnUse"
       id="clipPath4773">
      <rect
         style="fill:none;fill-opacity:1;stroke:#000000;stroke-width:3.68111658;stroke-opacity:1"
         id="rect4775"
         width="8000.0244"
         height="5237.6499"
         x="-0.012182139"
         y="69.590866" />
    </clipPath>
    <clipPath
       clipPathUnits="userSpaceOnUse"
       id="clipPath4777">
      <rect
         style="fill:none;fill-opacity:1;stroke:#000000;stroke-width:3.68111658;stroke-opacity:1"
         id="rect4779"
         width="8000.0244"
         height="5237.6499"
         x="-0.012182139"
         y="69.590866" />
    </clipPath>
    <clipPath
       clipPathUnits="userSpaceOnUse"
       id="clipPath4781">
      <rect
         style="fill:none;fill-opacity:1;stroke:#000000;stroke-width:3.68111658;stroke-opacity:1"
         id="rect4783"
         width="8000.0244"
         height="5237.6499"
         x="-0.012182139"
         y="69.590866" />
    </clipPath>
    <clipPath
       clipPathUnits="userSpaceOnUse"
       id="clipPath4785">
      <rect
         style="fill:none;fill-opacity:1;stroke:#000000;stroke-width:3.68111658;stroke-opacity:1"
         id="rect4787"
         width="8000.0244"
         height="5237.6499"
         x="-0.012182139"
         y="69.590866" />
    </clipPath>
    <clipPath
       clipPathUnits="userSpaceOnUse"
       id="clipPath4789">
      <rect
         style="fill:none;fill-opacity:1;stroke:#000000;stroke-width:3.68111658;stroke-opacity:1"
         id="rect4791"
         width="8000.0244"
         height="5237.6499"
         x="-0.012182139"
         y="69.590866" />
    </clipPath>
    <clipPath
       clipPathUnits="userSpaceOnUse"
       id="clipPath4793">
      <rect
         style="fill:none;fill-opacity:1;stroke:#000000;stroke-width:3.68111658;stroke-opacity:1"
         id="rect4795"
         width="8000.0244"
         height="5237.6499"
         x="-0.012182139"
         y="69.590866" />
    </clipPath>
  </defs>
  <sodipodi:namedview
     pagecolor="#ffffff"
     bordercolor="#666666"
     borderopacity="1"
     objecttolerance="10"
     gridtolerance="10"
     guidetolerance="10"
     inkscape:pageopacity="0"
     inkscape:pageshadow="2"
     inkscape:window-width="1714"
     inkscape:window-height="856"
     id="namedview3918"
     showgrid="false"
     inkscape:zoom="0.1149375"
     inkscape:cx="3996.5984"
     inkscape:cy="2615.7859"
     inkscape:window-x="0"
     inkscape:window-y="0"
     inkscape:window-maximized="0"
     inkscape:current-layer="svg3916" />
  <rect
     style="fill:#ffd5d5;fill-opacity:1"
     id="rect3942"
     width="8000"
     height="5333.3335"
     x="0"
     y="0"
     clip-path="url(#clipPath4793)" />
  <g
     inkscape:groupmode="layer"
     id="layer3"
     inkscape:label="Layer 2" />
  <g
     inkscape:groupmode="layer"
     id="layer2"
     inkscape:label="Layer 1" />
  <path
     style="fill:#ffaaaa;stroke:#000000;stroke-width:1px;stroke-linecap:butt;stroke-linejoin:miter;stroke-opacity:1"
     d="m 5681.3486,4184.8318 c 0,0 156.6069,-87.0038 269.7118,-52.2023 113.105,34.8016 226.2099,60.9027 295.813,26.1012 69.603,-34.8016 243.6107,-8.7004 339.3148,26.1011 95.7042,34.8015 339.315,34.8015 495.9218,147.9065 156.6068,113.1049 556.8244,348.0152 783.0342,382.8168 226.2099,34.8015 139.2061,34.8015 139.2061,34.8015 L 8000,5333.2821 5707.4498,5107.0722 Z"
     id="path3940"
     inkscape:connector-curvature="0"
     clip-path="url(#clipPath4789)" />
  <path
     style="fill:#ff8080;stroke:#000000;stroke-width:1px;stroke-linecap:butt;stroke-linejoin:miter;stroke-opacity:1"
     d="m 5107.1235,4036.9727 c 0,0 565.5249,34.8015 696.0305,130.5057 130.5057,95.7042 217.5095,-17.4008 461.1203,147.9065 243.6106,165.3072 713.4312,287.1125 809.1354,374.1166 95.7042,87.0038 208.8091,182.708 356.7155,208.8091 147.9065,26.1011 352.3657,60.9027 461.1202,234.9102 C 8000,5307.2284 8000,5307.2284 8000,5307.2284 l -2536.1608,26.1011 z"
     id="path3938"
     inkscape:connector-curvature="0"
     clip-path="url(#clipPath4785)" />
  <path
     style="fill:#ff5555;stroke:#000000;stroke-width:1px;stroke-linecap:butt;stroke-linejoin:miter;stroke-opacity:1"
     d="m 0,1635.6712 c 0,0 365.416,174.0077 443.7195,252.3111 78.3034,78.3034 252.311,121.8053 252.311,121.8053 0,0 374.1163,87.0038 556.8244,278.4122 182.7078,191.4084 295.8128,330.6145 400.2175,374.1164 104.4045,43.5018 261.0114,121.8052 400.2175,278.4121 139.206,156.6068 469.8206,156.6068 626.4273,139.2061 156.607,-17.4008 669.9294,174.0076 765.6335,348.0152 95.7042,174.0076 156.607,217.5095 313.2139,200.1088 156.6067,-17.4008 382.8167,-113.105 565.5246,-69.6031 182.708,43.5019 530.7233,121.8053 774.3339,321.9141 243.6107,200.1088 200.1088,182.708 382.8168,252.3111 182.708,69.603 635.1278,313.2137 713.4312,452.4198 78.3034,139.2062 435.0191,600.3263 565.5248,643.8282 130.5057,43.502 -87.0038,104.4046 -87.0038,104.4046 L 0,5298.5316 Z"
     id="path3936"
     inkscape:connector-curvature="0"
     clip-path="url(#clipPath4781)" />
  <path
     style="fill:#d40000;stroke:#000000;stroke-width:1px;stroke-linecap:butt;stroke-linejoin:miter;stroke-opacity:1"
     d="m -17.4008,1818.3775 c 0,0 313.2137,304.5133 643.8282,417.6183 330.61455,113.1049 1592.1697,1061.4463 1827.0799,1296.3566 234.9104,234.9103 600.3264,443.7194 1035.3453,582.9255 435.0192,139.2061 870.0382,287.1126 870.0382,287.1126 0,0 870.038,234.9103 1113.6488,487.2214 243.6107,252.3111 391.5171,321.9141 391.5171,321.9141 l 43.5019,121.8054 L 0,5315.9306 Z"
     id="path3932"
     inkscape:connector-curvature="0"
     clip-path="url(#clipPath4777)" />
  <path
     style="fill:#800000;stroke:#000000;stroke-width:1px;stroke-linecap:butt;stroke-linejoin:miter;stroke-opacity:1"
     d="m -8.7004,1922.7842 c 0,0 165.3072,130.5057 417.6183,174.0076 252.31097,43.5019 461.12015,121.8053 617.727,269.7118 156.6069,147.9065 365.4159,295.813 469.8206,339.3147 104.4046,43.5019 243.6106,34.8015 356.7156,348.0153 113.105,313.2137 226.2099,348.0152 226.2099,348.0152 0,0 443.7195,287.1125 652.5285,574.2252 208.8092,287.1125 713.4312,591.6259 991.8435,669.9293 278.4122,78.3034 965.7422,217.5095 1044.0456,217.5095 78.3035,0 487.2214,87.0038 783.0343,200.1089 295.813,113.1049 426.3187,139.2061 635.1279,130.5057 208.8091,-8.7004 661.229,87.0038 800.435,52.2023 139.2062,-34.8015 374.1163,-26.1012 461.1203,-78.3034 87.0038,-52.2023 287.1125,-60.9027 408.9179,-34.8016 121.8049,26.1012 165.307,43.5019 165.307,43.5019 L 8000,5333.3335 H 0 Z"
     id="path3926"
     inkscape:connector-curvature="0"
     clip-path="url(#clipPath4773)" />
  <path
     style="fill:#550000;stroke:#000000;stroke-width:1px;stroke-linecap:butt;stroke-linejoin:miter;stroke-opacity:1"
     d="m -8.70041,2653.5984 c 0,0 443.71943,426.3186 643.82819,530.7232 200.10877,104.4046 930.94082,652.5286 1339.85872,1061.4465 408.9178,408.9179 939.6411,669.9294 1104.9483,765.6336 165.3072,95.7042 443.7195,321.9141 443.7195,321.9141 L -3e-5,5289.8139 Z"
     id="path3934"
     inkscape:connector-curvature="0"
     clip-path="url(#clipPath4769)" />
</svg>
