<?xml version="1.0" encoding="utf-8"?>
<!DOCTYPE svg PUBLIC "-//W3C//DTD SVG 1.1//EN" "http://www.w3.org/Graphics/SVG/1.1/DTD/svg11.dtd">

<svg version="1.1" id="Layer_1" xmlns="http://www.w3.org/2000/svg" xmlns:xlink="http://www.w3.org/1999/xlink" x="0px" y="0px" width="150px" height="150px" viewBox="0 0 150 150" enable-background="new 0 0 150 150" xml:space="preserve">
    <g>
      <g>
        <polygon fill="#6ABFE2" points="19,105.438 19,39.27 76.499,6.185 134,39.27 134,105.438 76.499,138.52 		"></polygon>
        <path fill="#F2F2F2" d="M106.191,61H98V37.161c0-1.2-0.596-2.161-1.796-2.161H41.405C40.205,35,39,35.961,39,37.161v37.761
          C39,76.123,40.205,77,41.405,77H79v1H41.024c-1.388,0-2.514,0.469-2.514,1.074l-4.023,5.983c0,0.606,1.126,0.942,2.514,0.942H79
          v27.273c0,1.138,0.843,1.727,1.98,1.727h25.211c1.138,0,1.809-0.589,1.809-1.727V62.7C108,61.562,107.329,61,106.191,61z
           M68.75,75.278c-1.056,0-1.913-0.856-1.913-1.913s0.857-1.913,1.913-1.913c1.057,0,1.914,0.856,1.914,1.913
          S69.807,75.278,68.75,75.278z M44.996,69C43.952,69,42,67.875,42,67.009V39.751C42,38.885,43.952,38,44.996,38H92.71
          c1.046,0,1.29,0.885,1.29,1.751V61H80.98C79.843,61,79,61.562,79,62.7V69H44.996z M93.568,111.963c-1.314,0-2.38-1.064-2.38-2.379
          s1.065-2.38,2.38-2.38s2.379,1.065,2.379,2.38S94.883,111.963,93.568,111.963z M104,104H83V86.293v-8.325v-0.871v-8.519V67h11.601
          h3.776H104V104z M104,64.667c0,0.183-0.252,0.333-0.434,0.333h-5.189h-3.775H83.51C83.327,65,83,64.85,83,64.667v-0.019
          C83,64.467,83.327,65,83.51,65h11.092h3.775h5.189c0.182,0,0.434-0.533,0.434-0.352V64.667z"></path>
      </g>
    </g>
    </svg>