<?xml version="1.0" encoding="utf-8"?>
<!DOCTYPE svg PUBLIC "-//W3C//DTD SVG 1.1//EN" "http://www.w3.org/Graphics/SVG/1.1/DTD/svg11.dtd">

<svg version="1.1" id="Layer_1" xmlns="http://www.w3.org/2000/svg" xmlns:xlink="http://www.w3.org/1999/xlink" x="0px" y="0px" width="150px" height="150px" viewBox="0 0 150 150" enable-background="new 0 0 150 150" xml:space="preserve">

    <g>
      <polygon fill="#6ABFE2" points="20,104.192 20,39.532 75.999,7.202 132,39.532 132,104.192 75.999,136.52 	"></polygon>
      <g>
        <path fill="none" d="M62.011,48.323c0-3.697,3.001-6.848,6.698-6.848c3.693,0,6.709,2.524,6.719,6.524H76v2.109
          c0.777-1.674,2.176-3.899,2.176-6.344c0-5.199-4.356-9.413-9.555-9.413s-9.529,4.214-9.529,9.413c0,2.733,1.353,5.194,2.908,6.914
          v-1.907C62,48.624,62.011,48.475,62.011,48.323z"></path>
        <path fill="none" d="M84.419,43.766c0-8.647-7.151-15.656-15.798-15.656c-8.647,0-15.773,7.009-15.773,15.656
          c0,6.372,3.708,11.854,9.152,14.297v-3.511c-3.889-2.184-6.102-6.197-6.102-10.786c0-6.923,5.635-12.534,12.557-12.534
          c6.922,0,12.83,5.611,12.83,12.534c0,4.35-2.174,8.182-5.285,10.429v3.601C80.667,55.233,84.419,49.914,84.419,43.766z"></path>
        <path fill="#FFFFFF" d="M105.905,96.659c0-0.005,0.002-18.933,0.002-18.933c-0.16-3.594-3.093-6.414-6.688-6.414
          c-1.28,0-2.477,0.347-3.493,0.971c-0.326-3.394-3.186-6.054-6.664-6.054c-1.655,0-3.169,0.597-4.338,1.592
          c-1.173-1.935-3.021-3.229-5.449-3.229c-1.305,0-3.275,0.373-3.275,1.02v-4.4c6.223-2.764,11.541-9.533,11.541-17.446
          c0-10.371-8.55-18.777-18.92-18.777s-18.895,8.406-18.895,18.777C49.727,51.894,55,58.814,62,61.428v21.435
          c-1.556,1.463-3.501,3.138-4.538,5.244c-0.5,1.018-0.78,2.04-0.916,3.162c-0.112,0.927-0.007,1.88,0.187,2.789
          c0.396,1.85,1.368,3.57,2.435,5.113c1.259,1.819,2.708,3.505,4.134,5.194c0.919,1.09,1.835,2.184,2.714,3.309
          c-0.083-0.106-0.167-0.214-0.25-0.321c0.226,0.291,0.458,0.578,0.688,0.868c1.306,1.705,2.415,3.552,3.243,5.537
          c-0.032-0.079-0.064-0.157-0.096-0.234c0.157,0.367,0.327,0.66,0.698,0.874c0.359,0.207,0.79,0.264,1.191,0.156
          c0.4-0.106,0.746-0.372,0.953-0.731c0.185-0.32,0.305-0.83,0.156-1.19c-0.529-1.278-1.125-2.514-1.846-3.696
          c-0.726-1.188-1.562-2.308-2.444-3.385c0.084,0.106,0.167,0.214,0.25,0.321c-1.833-2.362-3.841-4.582-5.684-6.936
          c-1.02-1.324-1.985-2.716-2.659-4.251c-0.238-0.61-0.423-1.241-0.526-1.889c-0.045-0.479-0.046-0.959,0.003-1.437
          c0.084-0.489,0.219-0.966,0.398-1.429c0.29-0.644,0.656-1.245,1.073-1.814c0.962-1.219,3.271-3.17,3.235-3.143
          c0.19-0.15,0.352-0.296,0.474-0.483c0.192-0.252,0.202-0.521,0.211-0.899L65,62.259v-3.18v-3.21v-1.862v-1.411v-4.472
          c0-1.964,1.536-3.555,3.5-3.555c1.962,0,3.5,1.591,3.5,3.555v4.24v9.786c0,0,0.146,11.839,0.146,11.902
          c0,0.867,0.781,1.579,1.648,1.579c0.014,0-0.145,0.004-0.131,0.004C74.511,75.614,75,74.903,75,74.05c0-0.062,0-3.42,0-3.42
          c1-1.747,1.751-3.1,3.561-3.1c1.663,0,2.439,1.143,3.439,2.686v1.59v2.819c0,0.492,0.456,0.93,0.81,1.218
          c0.165,0.136,0.474,0.236,0.686,0.295c0.134,0.037,0.032,0.058,0.178,0.058c0.867,0,1.327-0.703,1.327-1.57v-2.229
          c0,0,0.35-0.629,0.381-0.731c0.449-1.449,1.95-2.504,3.548-2.504c1.964,0,3.629,1.612,3.629,3.575
          c0,0.168,0.058,4.133,0.058,4.133s0.021,1.552,0.059,1.686c0.182,0.663,0.792,1.149,1.514,1.149c0.776,0,1.427-0.564,1.554-1.307
          c0.014-0.086,0.027-1.354,0.027-1.354c0.282-1.609,1.762-2.79,3.472-2.79c1.928,0,3.49,1.488,3.547,3.474l-0.017,5.927
          l0.038,13.411c0.044,0.665,0.031,1.331-0.047,1.994c-0.134,0.828-0.366,1.636-0.676,2.416c-0.813,1.867-2.002,3.533-3.148,5.204
          c-0.602,0.878-1.193,1.763-1.726,2.685c-0.637,1.101-1.155,2.263-1.584,3.459c-0.318,0.886-0.5,1.787-0.608,2.721
          c-0.045,0.397,0.194,0.858,0.466,1.127c0.29,0.287,0.687,0.451,1.094,0.454c0.42,0.003,0.833-0.167,1.127-0.465
          c0.311-0.315,0.405-0.67,0.454-1.094c0.002-0.013,0.003-0.024,0.005-0.038c0.155-0.939,0.459-1.832,0.812-2.715
          c0.837-1.915,2.04-3.631,3.218-5.348c1.241-1.81,2.408-3.653,3.13-5.741C105.882,100.113,106.08,98.354,105.905,96.659z
           M52.777,43.766c0-8.647,7.032-15.656,15.678-15.656c8.647,0,15.951,7.009,15.951,15.656c0,6.148-3.739,11.468-8.406,14.029
          v-3.601c3.111-2.247,5.297-6.079,5.297-10.429c0-6.923-5.753-12.534-12.676-12.534c-6.923,0-12.651,5.611-12.651,12.534
          c0,4.589,2.142,8.603,6.03,10.786v3.511C56.556,55.619,52.777,50.138,52.777,43.766z M75.427,48.309
          c-0.009-3.689-3.002-6.68-6.695-6.68c-3.697,0-6.673,2.997-6.673,6.694c0,0.151,0.035,2.356,0.035,2.356
          c-1.861-1.72-3.027-4.181-3.027-6.914c0-5.199,4.214-9.413,9.412-9.413c5.198,0,9.412,4.214,9.412,9.413
          c0,2.444-0.932,4.67-2.459,6.344L75.427,48.309z"></path>
      </g>
    </g>
    </svg>